<svg xmlns="http://www.w3.org/2000/svg" viewBox="0 0 128 128"><path fill="#1572B6" d="M18.814 114.123L8.76 1.352h110.48l-10.064 112.754-45.243 12.543z"/><path fill="#33A9DC" d="M64.001 117.062l36.559-10.136 8.601-96.354H64.001z"/><path fill="#fff" d="M64 66.049H45.654l-1.224-13.647H64V39.151H29.807l.327 3.633 3.374 37.86H64zm0 28.447l-.062.016-15.54-4.193-.994-11.108H34.175l1.954 21.928 27.846 7.728.025-.007z"/><path fill="#EBEBEB" d="M63.952 66.049v13.251h16.763l-1.58 17.574-15.183 4.098v13.771l27.895-7.706.205-2.293 3.19-35.718.329-3.977H63.952zm0-26.898v13.251h32.796l.272-3.054.623-6.932.328-3.265z"/></svg>
