<svg xmlns="http://www.w3.org/2000/svg" viewBox="0 0 128 128"><path fill="#019BC6" d="M124.8 52.1c-4.3-2.5-10-2.8-14.8-1.4-.6-5.2-4-9.7-8-12.9l-1.6-1.3-1.4 1.6c-2.7 3.1-3.5 8.3-3.1 12.3.3 2.9 1.2 5.9 3 8.2-1.4.8-2.9 1.9-4.3 2.4-2.8 1-5.9 2-8.9 2H1.5l-.3 1.6c-1 6.1-.8 25.2 11.4 39.9 9.5 11.4 23.7 17.2 42.2 17.2 40.2 0 70-18.5 84.1-52.2 5.5.3 17.3.3 23.4-11.5l1.2-2.2-2.7-3.7z"/><path fill="#019BC6" d="M71 42H60v10h11V42zm0-15H60v10h11V27zm-14 15H46v10h11V42zm-14 0H32v10h11V42zm-14 0H18v10h11V42zm28-15H46v10h11V27zm28 0H74v10h11V27z"/></svg>
