<svg xmlns="http://www.w3.org/2000/svg" viewBox="0 0 128 128"><path fill="#512BD4" d="M64 0C28.7 0 0 28.7 0 64s28.7 64 64 64 64-28.7 64-64S99.3 0 64 0z"/><path fill="#fff" d="M18.3 85.5c-1.4 0-2.6-.5-3.5-1.4-.9-.9-1.4-2.1-1.4-3.5s.5-2.6 1.4-3.5c.9-.9 2.1-1.4 3.5-1.4s2.6.5 3.5 1.4c.9.9 1.4 2.1 1.4 3.5s-.5 2.6-1.4 3.5-2.1 1.4-3.5 1.4zm55.2-1.1H66L45.7 52.5h-.2c.2 3.5.4 6.7.4 9.6v22.3h-6.6V42.7h7.4L67 74.2h.2c-.2-3.4-.3-6.5-.3-9.3V42.7h6.6v41.7zm39.3 0H89.2V42.7h23.6v5.9H95.8v11.6h15.9v5.9H95.8v12.4h16.9v5.9z"/></svg>
